<?xml version="1.0" encoding="UTF-8"?>
<svg id="Legal_Name" data-name="Legal Name" xmlns="http://www.w3.org/2000/svg" xmlns:xlink="http://www.w3.org/1999/xlink" viewBox="0 0 1920 1080">
  <defs>
    <style>
      .cls-1 {
        fill: #d46635;
      }

      .cls-2 {
        fill: #b55530;
      }

      .cls-3 {
        filter: url(#outer-glow-1);
      }

      .cls-4 {
        clip-path: url(#clippath-1);
      }

      .cls-5 {
        fill: #ea7a53;
      }

      .cls-6 {
        fill: #0f0e0e;
      }

      .cls-7 {
        clip-path: url(#clippath);
      }

      .cls-8 {
        fill: none;
      }

      .cls-9 {
        fill: #cf6a3d;
        font-family: Consolas-Bold, Consolas;
        font-size: 170px;
        letter-spacing: .1em;
      }
    </style>
    <filter id="outer-glow-1" filterUnits="userSpaceOnUse">
      <feOffset dx="0" dy="0"/>
      <feGaussianBlur result="blur" stdDeviation="60"/>
      <feFlood flood-color="#d46635" flood-opacity=".4"/>
      <feComposite in2="blur" operator="in"/>
      <feComposite in="SourceGraphic"/>
    </filter>
    <clipPath id="clippath">
      <rect class="cls-8" x="17" y="17" width="1046" height="1046"/>
    </clipPath>
    <clipPath id="clippath-1">
      <rect class="cls-8" x="17" y="17" width="1046" height="1046"/>
    </clipPath>
  </defs>
  <rect class="cls-6" x="0" width="1920" height="1080"/>
  <g id="Logo_Text" data-name="Logo+Text" class="cls-3">
    <text id="Text" class="cls-9" transform="translate(1254.10791 278.42993)"><tspan x="0" y="0">TOTK</tspan><tspan x="-110.4668" y="204">Visual</tspan><tspan x="-110.4668" y="408">Studio</tspan><tspan x="0" y="612">Code</tspan></text>
    <g id="Logo">
      <g class="cls-7">
        <g class="cls-4">
          <path class="cls-2" d="M668.01255,728.76011c-31.55367-12.98306-70.10448-28.68327-109.34995-44.57756,36.16057-13.11586,70.65612-25.13875,89.90085-32.41171,32.93265-12.44167,97.33729-43.17813,113.43583-51.22744,16.0986-8.0493,95.86635-62.93364,113.42566-75.37531,17.56954-12.44167,51.2274-57.81605,51.96291-64.40458,.73544-6.57836,2.92143-49.03125,2.19622-57.08055-.7355-8.0493,2.19615-33.65792,18.29476-8.77458,16.0986,24.87312,12.44167,96.59156,8.78474,103.91559-3.66709,7.31386-11.7164,34.39342-22.68713,48.29578-6.34344,9.75519-2.93166,21.22648-2.93166,21.22648,0,0,6.87457,15.20989,5.36279,31.46171,0,0-4.37198,28.5505-11.21594,35.37401-3.78967,3.77947-17.00768,7.29338-17.80447-3.65693-.81718-11.14437,3.16664-42.68781-.49029-46.35497-3.65693-3.6569-11.70623,7.32406-22.68719,17.56954s-66.59057,57.08055-82.69934,66.59057c-16.0986,9.52024-69.51206,34.39339-91.47398,40.98195-8.12081,2.44136-23.75974,9.69391-42.02382,18.44801"/>
          <path class="cls-1" d="M1007.88068,899.12327c-4.38221,8.0493-69.51206,41.70721-81.22846,54.14889-11.70623,12.44168-18.29482,21.9517-31.46171,21.22644-13.17717-.73547-54.8844,.72525-103.19037,1.46072-48.29575,.73547-199.04643-7.31383-256.12695-7.31383-116.35729,2.19619-207.84143,1.46072-258.33339,3.65692s-84.88539,1.46072-98.0625,1.46072-19.75554-8.78476-35.85414-22.68717c-16.10877-13.9024-69.52222-52.68815-76.11081-59.27674-5.0972-5.08699-7.11972-7.54877,7.44666-14.16798,83.47567,1.01128,210.81395-13.4223,319.67355-27.53923-5.12787,1.46073,76.11075,10.97075,141.24063,9.51003,5.85305,0,79.75749,1.46072,121.47487,1.46072,162.50798,4.88269,288.21184,13.91261,301.14381,2.00212,18.75444,7.74285,33.12673,13.61639,39.87873,16.29267,31.47199,12.44167,13.90245,11.71643,9.51008,19.76571"/>
          <path class="cls-1" d="M539.99866,490.99294c160.91032,2.41992,293.25795-83.33571,303.53102-90.04687,10.27407-6.71222,21.9568-5.03392,25.48193-.83968,3.52513,4.19523,4.43221,18.36427,2.01435,22.37253-2.4168,4.00832-2.4168,10.25369-2.4168,13.14344s2.11448,12.30482,2.01435,19.66869c-.10113,7.36393-3.72639,22.55851-8.66217,27.21953-4.93485,4.66002-20.64728,7.27091-26.58927,.55875-5.94299-6.71116-7.35264-16.0332-8.05747-21.90574-.70582-5.87254-1.81316-11.37218-6.54669-9.04217-4.73459,2.33101-46.33146,21.34699-49.05064,29.82935-2.71924,8.48242-2.11448,20.69429-.10013,28.15111,2.01435,7.45788-.6047,29.17771-10.67658,32.90609-10.07182,3.72841-21.35204,3.44854-26.89159-3.8224-5.53948-7.27091-1.77943-30.41977-5.40569-36.13707-3.62526-5.71723-58.81908,14.54188-60.83449,19.14061-2.01335,4.59874-1.34226,46.23542-5.37096,51.45622-4.02877,5.2198-11.41508,13.67155-19.87505,12.05556-8.46091-1.61599-13.69808-.87029-17.05568-8.69998-3.35661-7.83068-4.29742-17.89742-3.89391-21.00477,.40245-3.10735,.5373-5.3444,.80595-11.4345,.26865-6.09006,.6711-15.66037-8.05747-15.28754-8.72963,.37283-45.12206,1.24319-50.62888,.99393-5.50582-.2482-9.66831,7.70608-11.41408,9.94311-1.7457,2.23705-.67209,16.7789,.13386,21.25403,.80595,4.47411,2.55165,16.68491,2.41786,24.43797-.13486,7.75207-6.31177,28.88147-12.35489,32.60988-6.04309,3.72841-20.27847,8.57638-29.41054-2.23705-9.13104-10.81343-9.53455-20.13448-10.07185-30.20221-.5373-10.06777,2.41786-16.40607,3.76008-22.74439,1.34325-6.33933,3.62629-22.49613,1.47808-27.5923-2.14918-5.0962-4.66716-6.15241-8.6959-5.96649-4.0287,.18691-15.10773-.65171-23.76993-2.23705-8.66117-1.58435-29.20832-4.56707-33.84075-5.21977-4.63346-.65277-6.04309-.93264-8.46094-.93264-2.41683,0-5.74074,5.12681-5.03591,12.86457,.7048,7.73673,2.92143,21.16005,3.32391,30.76096,.40245,9.60198-4.43121,23.677-10.07185,27.87223-5.64064,4.1942-21.15085,10.43957-27.39519,.18592-6.24534-10.25365-5.84186-13.70219-6.04309-22.46449-.20225-8.7623,4.12883-20.88117,4.53231-27.12654,.40248-6.24537,1.91326-20.78718-.70582-26.56676-2.61808-5.77952-35.04918-12.30476-47.53886-15.10056-12.48868-2.79686-13.29463-1.30547-13.49586,3.9143-.20225,5.22083,2.01435,14.54188,2.01435,21.81278s-3.22378,23.67697-9.66934,26.4738c-6.4456,2.7968-17.52459,1.86419-21.3521-3.16969-3.82751-5.03282-9.66937-11.93093-9.26587-22.55844,.40245-10.62646,3.42401-15.28754,3.62523-24.7955s.76611-15.66037-3.64568-19.38881c-4.41179-3.72838-31.90811-24.60958-38.75715-26.28689-6.84804-1.67824-10.27308-2.51693-11.07903,2.42297-.80492,4.94096-.50357,24.42373-3.82648,28.33802-3.32391,3.91536-16.71964,10.16073-27.59744,2.51693-10.87777-7.64374-7.95634-21.71876-7.85621-25.82104,.10113-4.10127,5.84186-19.94756,5.03591-25.91406-.80595-5.9655-10.07185-16.77893-10.07185-22.93128s6.54669-13.42338,17.52562-13.88917c10.9779-.46579,13.89933,1.30547,21.65445,5.40675,7.75509,4.10127,104.07597,76.46831,302.19082,83.05583"/>
          <path class="cls-1" d="M967.81672,261.80898c6.31277-4.69887,6.04717-5.09726,13.96367-8.32512,7.92673-3.2177,13.03415-4.15745,19.61251-5.63861,6.57836-1.47094,19.0711-2.95204,18.66254-8.32506-.39839-5.37302-5.50582-8.05953-14.22933-8.86648-8.73368-.79679-29.14292-2.41075-38.40779-5.90421-9.2751-3.49346-19.61251-7.38531-20.95065-16.926-1.34837-9.53047-2.15532-21.08345-4.30047-28.46876-2.14509-7.38531-.80695-10.20462-6.04717-9.53047-5.23,.67421-7.38531,3.36072-8.98905,12.75833-1.61396,9.39767-8.73368,21.21625-22.69742,20.5421-13.96367-.66399-38.14219-14.36207-41.50285-28.86716-3.3505-14.50509-5.09726-34.10738-6.97676-38.00946-1.87956-3.89185-4.97462-7.25251-7.66113-6.31277-2.67628,.93975-4.69887,.14302-6.03701,9.80623-1.3483,9.67349-2.68651,25.11833-7.38531,30.62414s-26.293,5.59771-44.42435-3.46285c-18.12112-9.06056-27.99886-23.38179-28.70369-37.12077-.70483-13.73891-4.52523-22.00275-7.34448-22.29896-2.81931-.30643-8.26384,3.52413-9.07079,9.26487-.80701,5.74074-2.11448,17.22221-6.03701,21.45117-3.93269,4.2289-12.79917,5.43424-16.22118,5.13803-3.42195-.30643-43.41309-11.48147-49.05164-22.156-5.63861-10.68469-3.2177-29.5107-6.03701-35.15947-2.81931-5.63861-2.72735-8.95844-6.64987-6.94608-3.93269,2.01229-9.06056,1.01126-9.5713,8.66217-.50052,7.65091-1.6139,22.05388-9.46912,28.80587s-14.30078,12.89113-43.30074,9.36699c-29.01018-3.52413-46.23239-5.03591-48.449-26.28277-2.2166-21.25709-3.23809-30.91013-9.38744-35.3434-6.1391-4.42298-10.91967-5.04614-13.34058,.28605-2.41069,5.34234-2.45156,29.71495-5.5773,38.87769-3.11551,9.16268-14.50509,18.43778-22.96298,18.33566-8.45789-.10219-35.17992,3.31982-47.67266,3.31982s-21.75764-6.57836-23.63716-16.38465c-1.87953-9.80623-2.41069-17.98832-5.90418-22.96295-3.49346-4.9644-7.25255-7.38531-11.42019-4.43327-4.15745,2.96233-7.38534,33.44345-9.66323,38.9492-2.28815,5.50582-36.96752,22.55439-55.59939,13.90245-18.63187-8.66223-11.08314-18.64209-15.81262-25.48605-4.72942-6.85418-7.45682-4.63758-10.57234-2.42091-3.12574,2.2166-6.04717,25.88438-7.05843,29.61282-1.0011,3.72844-4.22896,11.78791-10.16378,14.1067-5.94505,2.30856-36.36488,15.90452-48.14256,15.71043-11.78791-.20431-13.69814-11.18527-15.51635-17.13031-1.80805-5.93482-4.43327-9.35677-8.95844-9.06056-4.53539,.30643-9.77561,20.45014-10.68469,28.10105-.89891,7.65091-15.30188,21.68609-24.70971,25.85377-9.39767,4.15745-10.87883,5.63861-18.26415,5.77141-7.38537,.1328-12.61537-4.15745-15.97603-14.22927-3.36066-10.07188-7.25251-15.85346-14.23949-14.91371-6.97676,.93975-8.45792,1.74676-9.66326,5.24022s-1.7467,31.96222-9.93902,40.15455-25.25106,12.15569-36.92669,12.34977c-11.68578,.20425-29.21443,2.2166-28.80581,6.04717,.39833,3.83057,1.80798,7.45682,10.67446,8.45792,8.86654,1.01126,29.80697,9.67343,38.67345,15.31204,8.86648,5.63855,21.85973,15.81256,22.36025,23.36134,.50058,7.55895-4.93372,13.80026-9.36699,16.11899-4.43321,2.31879-8.9686,2.81931-15.31204,2.81931s-12.58469-2.92143-20.54204-3.12574c-7.9574-.19408-22.25818,4.53539-22.76893,8.05953-.50052,3.52413,6.25148,7.45682,11.89009,9.07079,5.63861,1.60374,27.60053,6.44556,32.63644,8.75413,5.03591,2.31873,18.16196,6.78261,28.36664,9.07079,10.20462,2.27789,51.29892,4.8316,61.76913,9.13207,10.48044,4.30041,138.78908,97.42912,321.90038,97.42912,193.97985,0,308.80494-81.58595,361.98341-104.5489,0,0,16.31308-6.71116,31.35952-6.04717,15.03628,.67415,23.22861,4.56601,33.84178,4.70903,10.60301,.1328,15.97603-2.96233,20.6749-3.09513,4.6988-.13274,11.42019,3.62632,16.92594,3.22793,5.50582-.40862,10.87883-1.70586,16.38465-4.88273,5.50582-3.1768,10.33742-4.11655,11.40996-8.0084,1.07255-3.90208-1.74676-5.63861-9.93902-8.19232-8.19232-2.55371-24.03556-2.28812-32.36062-5.91437-8.32512-3.62626-20.95065-12.34977-21.08345-17.04858-.1328-4.69887,.1328-7.38531,6.84396-14.91371,6.72132-7.51811,5.24022-7.10949,11.55299-11.81852m-658.70417,40.02175s-1.33814,66.34536-47.2641,38.67338c-45.92596-27.66181-5.10742-53.70967-5.10742-53.70967,59.89986-37.33524,52.37152-16.926,52.37152,15.03628m85.94768-1.07261c-26.31345,59.3585,5.10742,82.45425-22.83018,82.18866-27.92735-.2656-34.91433-23.9027-34.91433-23.9027-17.4572-37.06971,19.87811-120.33091,58.81706-120.05509,38.9492,.2656,25.25109,2.41069-1.07255,61.76913m232.32638,97.76629c-7.25251,12.89113-25.51666,9.13207-37.60084,2.14509-12.08418-6.97669,5.10742-40.55288,5.10742-53.4134,1.33814-17.69212-13.16695-78.19462-66.87655-74.96675-53.71986,3.2177-72.52539,52.41236-70.37007,79.22633,2.2575,21.09368,7.85522,46.80442-2.42091,49.15382-10.27613,2.34946-13.69811,1.87956-23.09575-13.96367-9.39767-15.84323-25.51669-47.80546,15.57764-107.97091,41.0943-60.16539,133.75317-46.73291,166.78794-3.22786,33.03483,43.51521,20.1437,110.12623,12.89113,123.01736m89.23686-28.46876c-6.44556,5.4343-23.16726,27.19191-36.45678,4.43327-13.29968-22.76893,6.24132-36.8654-17.92704-87.22457-24.17852-50.35917-20.43991-50.69627-16.11899-50.96187,63.65891-4.03488,79.97199,59.81812,79.97199,59.81812,14.09647,44.52653-3.02362,68.49051-9.46918,73.93504m67.88787-15.71043c-19.541,0-25.54733-22.01298-26.19087-50.76779-.98059-43.88293,19.48994-31.91116,41.0943-20.74635,23.56565,12.68688,30.21553,25.17961,30.01122,35.64983-.19408,10.48044-25.37364,35.8643-44.91464,35.8643m103.12908-57.41766c-19.45933-8.93799-213.25531-100.91242-359.12327-100.91242-83.9558,2.43114-266.89341,39.72554-324.9546,85.20205-16.14967,12.65614-52.35107-8.30467-47.74417-39.27609,2.79886-18.76466,204.8689-99.11466,375.8858-99.11466s380.7174,88.23583,397.03054,96.15233c16.3233,7.92673-24.16836,65.72233-41.0943,57.94879"/>
          <path class="cls-1" d="M967.81672,261.80898c6.31277-4.69887,6.04717-5.09726,13.96367-8.32512,7.92673-3.2177,13.03415-4.15745,19.61251-5.63861,6.57836-1.47094,19.0711-2.95204,18.66254-8.32506-.39839-5.37302-5.50582-8.05953-14.22933-8.86648-8.73368-.79679-29.14292-2.41075-38.40779-5.90421-9.2751-3.49346-19.61251-7.38531-20.95065-16.926-1.34837-9.53047-2.15532-21.08345-4.30047-28.46876-2.14509-7.38531-.80695-10.20462-6.04717-9.53047-5.23,.67421-7.38531,3.36072-8.98905,12.75833-1.61396,9.39767-8.73368,21.21625-22.69742,20.5421-13.96367-.66399-38.14219-14.36207-41.50285-28.86716-3.3505-14.50509-5.09726-34.10738-6.97676-38.00946-1.87956-3.89185-4.97462-7.25251-7.66113-6.31277-2.67628,.93975-4.69887,.14302-6.03701,9.80623-1.3483,9.67349-2.68651,25.11833-7.38531,30.62414s-26.293,5.59771-44.42435-3.46285c-18.12112-9.06056-27.99886-23.38179-28.70369-37.12077-.70483-13.73891-4.52523-22.00275-7.34448-22.29896-2.81931-.30643-8.26384,3.52413-9.07079,9.26487-.80701,5.74074-2.11448,17.22221-6.03701,21.45117-3.93269,4.2289-12.79917,5.43424-16.22118,5.13803-3.42195-.30643-43.41309-11.48147-49.05164-22.156-5.63861-10.68469-3.2177-29.5107-6.03701-35.15947-2.81931-5.63861-2.72735-8.95844-6.64987-6.94608-3.93269,2.01229-9.06056,1.01126-9.5713,8.66217-.50052,7.65091-1.6139,22.05388-9.46912,28.80587s-14.30078,12.89113-43.30074,9.36699c-29.01018-3.52413-46.23239-5.03591-48.449-26.28277-2.2166-21.25709-3.23809-30.91013-9.38744-35.3434-6.1391-4.42298-10.91967-5.04614-13.34058,.28605-2.41069,5.34234-2.45156,29.71495-5.5773,38.87769-3.11551,9.16268-14.50509,18.43778-22.96298,18.33566-8.45789-.10219-35.17992,3.31982-47.67266,3.31982s-21.75764-6.57836-23.63716-16.38465c-1.87953-9.80623-2.41069-17.98832-5.90418-22.96295-3.49346-4.9644-7.25255-7.38531-11.42019-4.43327-4.15745,2.96233-7.38534,33.44345-9.66323,38.9492-2.28815,5.50582-36.96752,22.55439-55.59939,13.90245-18.63187-8.66223-11.08314-18.64209-15.81262-25.48605-4.72942-6.85418-7.45682-4.63758-10.57234-2.42091-3.12574,2.2166-6.04717,25.88438-7.05843,29.61282-1.0011,3.72844-4.22896,11.78791-10.16378,14.1067-5.94505,2.30856-36.36488,15.90452-48.14256,15.71043-11.78791-.20431-13.69814-11.18527-15.51635-17.13031-1.80805-5.93482-4.43327-9.35677-8.95844-9.06056-4.53539,.30643-9.77561,20.45014-10.68469,28.10105-.89891,7.65091-15.30188,21.68609-24.70971,25.85377-9.39767,4.15745-10.87883,5.63861-18.26415,5.77141-7.38537,.1328-12.61537-4.15745-15.97603-14.22927-3.36066-10.07188-7.25251-15.85346-14.23949-14.91371-6.97676,.93975-8.45792,1.74676-9.66326,5.24022s-1.7467,31.96222-9.93902,40.15455-25.25106,12.15569-36.92669,12.34977c-11.68578,.20425-29.21443,2.2166-28.80581,6.04717,.39833,3.83057,1.80798,7.45682,10.67446,8.45792,8.86654,1.01126,29.80697,9.67343,38.67345,15.31204,8.86648,5.63855,21.85973,15.81256,22.36025,23.36134,.50058,7.55895-4.93372,13.80026-9.36699,16.11899-4.43321,2.31879-8.9686,2.81931-15.31204,2.81931s-12.58469-2.92143-20.54204-3.12574c-7.9574-.19408-22.25818,4.53539-22.76893,8.05953-.50052,3.52413,6.25148,7.45682,11.89009,9.07079,5.63861,1.60374,27.60053,6.44556,32.63644,8.75413,5.03591,2.31873,18.16196,6.78261,28.36664,9.07079,10.20462,2.27789,51.29892,4.8316,61.76913,9.13207,10.48044,4.30041,138.78908,97.42912,321.90038,97.42912,193.97985,0,308.80494-81.58595,361.98341-104.5489,0,0,16.31308-6.71116,31.35952-6.04717,15.03628,.67415,23.22861,4.56601,33.84178,4.70903,10.60301,.1328,15.97603-2.96233,20.6749-3.09513,4.6988-.13274,11.42019,3.62632,16.92594,3.22793,5.50582-.40862,10.87883-1.70586,16.38465-4.88273,5.50582-3.1768,10.33742-4.11655,11.40996-8.0084,1.07255-3.90208-1.74676-5.63861-9.93902-8.19232-8.19232-2.55371-24.03556-2.28812-32.36062-5.91437-8.32512-3.62626-20.95065-12.34977-21.08345-17.04858-.1328-4.69887,.1328-7.38531,6.84396-14.91371,6.72132-7.51811,5.24022-7.10949,11.55299-11.81852m-658.70417,40.02175s-1.33814,66.34536-47.2641,38.67338c-45.92596-27.66181-5.10742-53.70967-5.10742-53.70967,59.89986-37.33524,52.37152-16.926,52.37152,15.03628m85.94768-1.07261c-26.31345,59.3585,5.10742,82.45425-22.83018,82.18866-27.92735-.2656-34.91433-23.9027-34.91433-23.9027-17.4572-37.06971,19.87811-120.33091,58.81706-120.05509,38.9492,.2656,25.25109,2.41069-1.07255,61.76913m232.32638,97.76629c-7.25251,12.89113-25.51666,9.13207-37.60084,2.14509-12.08418-6.97669,5.10742-40.55288,5.10742-53.4134,1.33814-17.69212-13.16695-78.19462-66.87655-74.96675-53.71986,3.2177-72.52539,52.41236-70.37007,79.22633,2.2575,21.09368,7.85522,46.80442-2.42091,49.15382-10.27613,2.34946-13.69811,1.87956-23.09575-13.96367-9.39767-15.84323-25.51669-47.80546,15.57764-107.97091,41.0943-60.16539,133.75317-46.73291,166.78794-3.22786,33.03483,43.51521,20.1437,110.12623,12.89113,123.01736m89.23686-28.46876c-6.44556,5.4343-23.16726,27.19191-36.45678,4.43327-13.29968-22.76893,6.24132-36.8654-17.92704-87.22457-24.17852-50.35917-20.43991-50.69627-16.11899-50.96187,63.65891-4.03488,79.97199,59.81812,79.97199,59.81812,14.09647,44.52653-3.02362,68.49051-9.46918,73.93504m67.88787-15.71043c-19.541,0-25.54733-22.01298-26.19087-50.76779-.98059-43.88293,19.48994-31.91116,41.0943-20.74635,23.56565,12.68688,30.21553,25.17961,30.01122,35.64983-.19408,10.48044-25.37364,35.8643-44.91464,35.8643m103.12908-57.41766c-19.45933-8.93799-213.25531-100.91242-359.12327-100.91242-83.9558,2.43114-266.89341,39.72554-324.9546,85.20205-16.14967,12.65614-52.35107-8.30467-47.74417-39.27609,2.79886-18.76466,204.8689-99.11466,375.8858-99.11466s380.7174,88.23583,397.03054,96.15233c16.3233,7.92673-24.16836,65.72233-41.0943,57.94879"/>
          <path class="cls-2" d="M522.77788,790.12065c-25.89464,10.32722-50.67586,21.1243-60.81919,27.03869-9.224,5.38323-25.91505,13.77983-40.43037,20.76678-13.12605,6.32299-24.46453,11.47127-26.89567,12.16588-108.8596,14.11691-236.19781,28.55049-319.67352,27.53921,4.2698-1.94081,9.96967-4.22894,17.43675-7.04824,26.2419-9.91862,115.73417-43.54588,169.12716-64.56802,13.58573-5.35258,24.84249-9.88798,32.11546-13.00349,3.47304-1.49136,7.54878-3.23812,12.13524-5.20958,1.20534,2.91124,3.05423,5.74074,5.71009,8.40683,5.76116,5.77136,13.91261,8.8154,23.5452,8.8154,12.53363,0,26.97741-5.30149,32.88158-12.05352,6.00633-6.85415,5.8327-16.90555,5.66926-26.63011-.04087-2.70693-.09193-5.30148,.01019-7.56917,10.17401-4.33111,20.61355-8.77458,31.01228-13.18737,6.34341,1.89995,12.4008,4.01443,17.26308,6.22084,7.82457,3.56497,23.53501,8.68262,40.16477,14.09647,16.90555,5.51601,37.95833,12.37019,42.97382,15.38355,2.32898,1.38923,8.795,4.57626,17.77385,8.83583"/>
          <path class="cls-5" d="M958.49181,863.06487c-12.93203,11.91051-138.63589,2.88059-301.14381-2.0021,28.72414,0,16.15989-11.09332,4.11655-18.47865-5.44447-3.35047-10.7971-5.93484-12.16585-6.3945-4.39237-1.47094-128.06349-57.09076-139.04445-63.66912-10.98096-6.58856-68.06151-22.68716-84.16011-30.01118-16.0986-7.31383-42.44266-13.16695-54.1489-14.62766-11.7164-1.47094-7.21168,17.60016-8.32506,27.34513-1.15428,10.09227,1.73654,25.15917-3.39134,31.01228-5.11765,5.85309-29.81713,14.454-41.52336,2.7478-11.70617-11.71643,2.16554-30.40961,4.20851-36.95733,3.55481-11.40996,7.31386-21.96191,8.77458-26.34409,1.47094-4.39237-3.65693-27.815-13.16695-33.66812-9.51002-5.85309-61.65678-35.85411-68.24537-40.24648-6.57836-4.39237-34.2095-33.66812-42.2588-38.78576-8.0493-5.12784-27.07956-27.07953-32.93265-27.07953s-10.98096,8.78474-13.90239,13.90239c-2.93166,5.12784-10.98096,26.34409-21.95175,28.54028-10.98096,2.19619-16.83404-.72528-21.96191-4.3924-5.11758-3.6569-9.51002-16.09857-8.77452-23.4124,.72528-7.32406,19.02003-35.12886,20.49097-38.78576,1.46072-3.6569,10.24546-26.34409,8.0493-32.19718-2.19622-5.86331-9.04017-25.48605-13.17717-39.52123-7.16062-24.30109-7.29335-78.78709,0-89.2777,21.47162-27.81506,17.62061,10.87877,24.14791,31.70685,6.44556,20.54204,14.63789,50.98226,21.22648,68.5518,6.58852,17.55932,52.68812,39.51101,78.30696,55.60961,25.60862,16.09857,98.0625,52.69838,98.0625,52.69838,0,0,354.18948,141.96588,389.31834,158.79995,7.93689,3.79992,24.10701,10.91967,44.75123,19.80657,51.08438,21.98235,129.55482,54.79244,178.48394,74.9974,.11235,.04085,.2247,.09193,.33711,.13278"/>
          <path class="cls-5" d="M958.63502,862.93207c-.05112,.05108-.09196,.09195-.14302,.1328-.11235-.04085-.22476-.09193-.33711-.1328h.48013Z"/>
        </g>
      </g>
    </g>
  </g>
</svg>