<?xml version="1.0" encoding="UTF-8"?>
<svg id="Centered" xmlns="http://www.w3.org/2000/svg" xmlns:xlink="http://www.w3.org/1999/xlink" viewBox="0 0 1920 1080">
  <defs>
    <style>
      .cls-1 {
        fill: #d46635;
      }

      .cls-2 {
        fill: #b55530;
      }

      .cls-3 {
        clip-path: url(#clippath-1);
      }

      .cls-4 {
        fill: #ea7a53;
      }

      .cls-5 {
        fill: #0f0e0e;
      }

      .cls-6 {
        clip-path: url(#clippath);
      }

      .cls-7 {
        fill: none;
      }

      .cls-8 {
        fill: #cf6a3d;
        font-family: Consolas-Bold, Consolas;
        font-size: 170px;
        letter-spacing: .4em;
      }

      .cls-9 {
        filter: url(#outer-glow-2);
      }
    </style>
    <filter id="outer-glow-1" filterUnits="userSpaceOnUse">
      <feOffset dx="0" dy="0"/>
      <feGaussianBlur result="blur" stdDeviation="60"/>
      <feFlood flood-color="#d46635" flood-opacity=".4"/>
      <feComposite in2="blur" operator="in"/>
      <feComposite in="SourceGraphic"/>
    </filter>
    <filter id="outer-glow-2" filterUnits="userSpaceOnUse">
      <feOffset dx="0" dy="0"/>
      <feGaussianBlur result="blur-2" stdDeviation="60"/>
      <feFlood flood-color="#d46635" flood-opacity=".4"/>
      <feComposite in2="blur-2" operator="in"/>
      <feComposite in="SourceGraphic"/>
    </filter>
    <clipPath id="clippath">
      <rect class="cls-7" x="566.5" y="17" width="845" height="845"/>
    </clipPath>
    <clipPath id="clippath-1">
      <rect class="cls-7" x="566.5" y="17" width="845" height="845"/>
    </clipPath>
  </defs>
  <rect class="cls-5" width="1920" height="1080"/>
  <g id="Logo_Text-2" data-name="Logo+Text" class="cls-9">
    <text id="Text" class="cls-8" transform="translate(619.64648 974.20898)"><tspan x="0" y="0">TKVSC</tspan></text>
    <g id="Logo">
      <g class="cls-6">
        <g class="cls-3">
          <path class="cls-2" d="M1092.41358,591.98785c-25.4903-10.48823-56.63316-23.17147-88.3372-36.01151,29.21193-10.5955,57.0788-20.30807,72.62545-26.18346,26.60429-10.05087,78.63289-34.881,91.63793-41.38354,13.00509-6.50254,77.44461-50.84027,91.62972-60.89114,14.19337-10.05087,41.38351-46.70608,41.97768-52.02855,.59412-5.31426,2.36005-39.60938,1.77419-46.11192-.59417-6.50254,1.77414-27.1902,14.77923-7.08845,13.00509,20.09349,10.05087,78.03047,7.09666,83.9471-2.96242,5.90843-9.46497,27.78436-18.32756,39.01523-5.12448,7.88063-2.36831,17.14758-2.36831,17.14758,0,0,5.55355,12.28715,4.33228,25.41601,0,0-3.53186,23.06422-9.06068,28.57652-3.06144,3.05321-13.73947,5.89188-14.38315-2.95421-.66015-9.00286,2.55814-34.48489-.39608-37.44737-2.95421-2.95419-9.45676,5.91666-18.32761,14.19337s-53.79448,46.11192-66.80778,53.79448c-13.00509,7.69083-56.15458,27.78434-73.89628,33.10683-6.56031,1.97223-19.19405,7.83112-33.9485,14.90303"/>
          <path class="cls-1" d="M1366.97244,729.61392c-3.54012,6.50254-56.15458,33.69273-65.61955,43.74361-9.45676,10.05088-14.77928,17.73345-25.41601,17.14756-10.64504-.59414-44.33778,.58589-83.36125,1.18003-39.01521,.59414-160.79755-5.9084-206.90944-5.9084-93.998,1.77417-167.90249,1.18003-208.69189,2.9542s-68.57376,1.18003-79.21875,1.18003-15.9593-7.09668-28.96439-18.32759c-13.0133-11.23091-56.16279-42.56356-61.48531-47.88608-4.11772-4.10947-5.75159-6.09819,6.01571-11.44545,67.43494,.81695,170.30381-10.84307,258.24488-22.24727-4.1425,1.18004,61.48526,8.8626,114.09975,7.68258,4.72833,0,64.43124,1.18002,98.13219,1.18002,131.28034,3.94443,232.82888,11.23916,243.27583,1.61739,15.15057,6.25498,26.76108,10.99986,32.21561,13.16186,25.42432,10.05087,11.23095,9.46499,7.68262,15.96752"/>
          <path class="cls-1" d="M988.99892,399.91017c129.98969,1.9549,236.90532-67.32187,245.20431-72.7434,8.2998-5.4224,17.73757-4.0666,20.58531-.67833,2.84774,3.38907,3.58051,14.83538,1.62727,18.07341-1.95238,3.23808-1.95238,8.28333-1.95238,10.61779s1.70816,9.94032,1.62727,15.88914c-.08169,5.94887-3.01032,18.22365-6.99764,21.98901-3.98656,3.76455-16.67968,5.87372-21.47986,.45138-4.80098-5.42154-5.93975-12.95225-6.50914-17.69632-.57019-4.74407-1.46474-9.1869-5.28867-7.30462-3.82479,1.88308-37.42838,17.24494-39.62504,24.09732-2.19671,6.85244-1.70816,16.71766-.08089,22.74157,1.62727,6.02477-.4885,23.5709-8.62496,26.58283-8.13641,3.01196-17.24902,2.78587-21.72408-3.08788-4.47501-5.87372-1.43749-24.57429-4.36693-29.19295-2.92863-4.61861-47.51637,11.7475-49.1445,15.46254-1.62647,3.71504-1.08433,37.35079-4.33887,41.56836-3.2546,4.21676-9.22155,11.04442-16.05585,9.73896-6.83506-1.30546-11.06585-.70306-13.77825-7.02819-2.7116-6.32593-3.47162-14.45824-3.14565-16.96848,.32511-2.51024,.43405-4.31742,.65108-9.23724,.21703-4.91979,.54214-12.65106-6.50914-12.34988-7.05214,.30119-36.45138,1.0043-40.9,.80293-4.44781-.20051-7.81045,6.22528-9.22074,8.03243-1.41025,1.80718-.54294,13.55465,.10814,17.16984,.65108,3.61436,2.06133,13.47873,1.95324,19.74196-.10894,6.26242-5.0989,23.33159-9.98076,26.34354-4.88184,3.01196-16.38174,6.92834-23.75899-1.80718-7.37642-8.73552-7.70239-16.26542-8.13644-24.39854-.43405-8.13314,1.95324-13.25347,3.03754-18.37382,1.08513-5.12116,2.92946-18.17326,1.19405-22.29015-1.73619-4.11691-3.77032-4.97016-7.02489-4.81997-3.25455,.151-12.20462-.52648-19.20229-1.80718-6.99683-1.2799-23.59563-3.68946-27.33789-4.21674-3.74309-.52733-4.88184-.75342-6.83508-.75342-1.95241,0-4.63759,4.14164-4.06821,10.3925,.56936,6.25003,2.36005,17.09392,2.68518,24.84992,.32511,7.75686-3.57971,19.12722-8.13644,22.51629-4.55673,3.38824-17.08649,8.4335-22.13091,.15019-5.04523-8.28331-4.71929-11.06917-4.88184-18.1477-.16339-7.07853,3.33543-16.86863,3.66138-21.91389,.32514-5.04526,1.5456-16.7927-.57019-21.46168-2.11499-4.66892-28.31411-9.94027-38.40377-12.19883-10.08885-2.25942-10.73993-1.05461-10.90249,3.16212-.16339,4.21759,1.62727,11.7475,1.62727,17.62122s-2.6043,19.12719-7.81128,21.38658c-5.20701,2.25937-14.15706,1.50597-17.24907-2.5606-3.09201-4.06571-7.8113-9.63828-7.48533-18.2236,.32511-8.58447,2.76605-12.34988,2.9286-20.03078s.6189-12.65106-2.94512-15.66305c-3.56402-3.01193-25.77663-19.88059-31.30955-21.23558-5.53212-1.35575-8.29899-2.03327-8.95008,1.95737-.65025,3.9915-.40681,19.73045-3.09118,22.89257-2.68518,3.16298-13.50678,8.20824-22.2943,2.03327-8.78749-6.17491-6.42745-17.54527-6.34656-20.85925,.08169-3.31317,4.71929-16.11443,4.06821-20.9344-.65108-4.81916-8.13644-13.55468-8.13644-18.52479s5.28867-10.84393,14.15789-11.22022c8.86838-.37628,11.22843,1.05461,17.49332,4.36778,6.26487,3.31317,84.07667,61.77411,244.12165,67.09577"/>
          <path class="cls-1" d="M1334.6072,214.76634c5.0997-3.79593,4.88514-4.11777,11.28041-6.72536,6.40352-2.59939,10.5295-3.35855,15.84376-4.55509,5.31426-1.18828,15.40638-2.38478,15.07633-6.72531-.32184-4.34054-4.44781-6.5108-11.49502-7.16269-7.05541-.64368-23.5428-1.9475-31.02732-4.76965-7.49279-2.82215-15.84376-5.96615-16.92476-13.67349-1.08926-7.69909-1.74115-17.03204-3.47409-22.99819-1.73289-5.96615-.65189-8.24369-4.88514-7.69909-4.225,.54466-5.96615,2.71492-7.26171,10.30668-1.30382,7.59181-7.05541,17.13932-18.33587,16.59472-11.28041-.5364-30.81276-11.60224-33.52764-23.32003-2.70666-11.71778-4.11777-27.55328-5.6361-30.70554-1.51838-3.14399-4.0187-5.85887-6.18896-5.0997-2.16201,.75917-3.79593,.11554-4.87693,7.92185-1.08921,7.81463-2.17027,20.29157-5.96615,24.73939s-21.24052,4.52205-35.88774-2.79742c-14.63896-7.31948-22.61858-18.88873-23.18797-29.98762-.56939-11.09884-3.65566-17.77469-5.93316-18.01398-2.27755-.24755-6.67585,2.84693-7.32774,7.48453-.65194,4.63759-1.70816,13.91278-4.87693,17.3291-3.17698,3.41627-10.33967,4.38999-13.10411,4.15071-2.76438-.24755-35.0708-9.27519-39.62584-17.89849-4.55509-8.63151-2.59939-23.8399-4.87693-28.40321-2.27755-4.55509-2.20326-7.23698-5.37203-5.61132-3.17698,1.62561-7.31948,.81694-7.73208,6.99764-.40434,6.1807-1.30377,17.81599-7.64953,23.27052s-11.55273,10.41396-34.98004,7.56703c-23.43557-2.84693-37.34835-4.06821-39.13901-21.23226-1.79066-17.17231-2.61586-24.97042-7.58355-28.55179-4.95941-3.57306-8.82134-4.07647-10.77705,.23108-1.94745,4.31576-1.98046,24.0049-4.50556,31.40693-2.51684,7.40198-11.71778,14.89477-18.5504,14.81227-6.83262-.08255-28.41973,2.68188-38.51185,2.68188s-17.57668-5.31426-19.09503-13.23617c-1.51836-7.92185-1.94745-14.53168-4.76963-18.55037-2.82215-4.01044-5.85889-5.96615-9.22568-3.58137-3.35855,2.39309-5.96617,27.01694-7.80634,31.4647-1.84845,4.44781-29.86382,18.22033-44.91537,11.23095-15.05155-6.99769-8.9534-15.05981-12.77406-20.58863-3.82061-5.53708-6.02392-3.74642-8.54075-1.95571-2.5251,1.79066-4.88514,20.91042-5.70208,23.9224-.80873,3.01198-3.41632,9.52274-8.2107,11.39595-4.80264,1.86495-29.37698,12.8483-38.89146,12.69151-9.52274-.16505-11.0659-9.0359-12.53472-13.83854-1.46061-4.79438-3.58137-7.55877-7.23698-7.31948-3.66387,.24755-7.89713,16.52043-8.63151,22.70113-.72618,6.1807-12.36146,17.51888-19.96148,20.88569-7.59181,3.35855-8.78835,4.55509-14.7545,4.66237-5.9662,.10728-10.19119-3.35855-12.90607-11.49496-2.71487-8.13646-5.85887-12.80705-11.50322-12.04788-5.6361,.75917-6.83264,1.4111-7.80637,4.23326s-1.41105,25.82034-8.02913,32.43843-20.3988,9.81984-29.83083,9.97663c-9.44024,.165-23.60057,1.79066-23.27047,4.88514,.32179,3.09448,1.46056,6.02392,8.62325,6.83264,7.16274,.81694,24.07924,7.81458,31.24193,12.36967,7.16269,4.55504,17.65915,12.77401,18.06349,18.87221,.40439,6.10642-3.98566,11.1484-7.56703,13.02156-3.58132,1.87321-7.24519,2.27755-12.36967,2.27755s-10.16641-2.36005-16.59467-2.5251c-6.4283-.15679-17.98104,3.66387-18.39364,6.5108-.40434,2.84693,5.05019,6.02392,9.60529,7.32774,4.55509,1.29556,22.29679,5.20698,26.365,7.07193,4.06821,1.87316,14.67195,5.47926,22.91569,7.32774,8.24369,1.84017,41.44128,3.90316,49.89954,7.37725,8.46651,3.47404,112.11928,78.70708,260.0438,78.70708,156.70456,0,249.46479-65.90835,292.42446-84.45872,0,0,13.17834-5.42154,25.33346-4.88514,12.1469,.54461,18.76498,3.6886,27.33872,3.80414,8.56553,.10728,12.90607-2.39309,16.702-2.50037,3.79588-.10723,9.22568,2.92948,13.67344,2.60765,4.44781-.3301,8.78835-1.37806,13.23617-3.94446,4.44781-2.56635,8.35097-3.32551,9.21742-6.4695,.86645-3.15225-1.4111-4.55509-8.02913-6.61808-6.61808-2.06299-19.41687-1.84843-26.14218-4.77786-6.72536-2.92943-16.92476-9.97663-17.03204-13.77251-.10728-3.79593,.10728-5.96615,5.52882-12.04788,5.42975-6.07343,4.23326-5.74333,9.33296-9.54747m-532.12718,32.33115s-1.081,53.5964-38.1818,31.24188c-37.1008-22.3463-4.12598-43.38878-4.12598-43.38878,48.38947-30.16088,42.30778-13.67349,42.30778,12.1469m69.43192-.8665c-21.25704,47.95214,4.12598,66.60979-18.44312,66.39523-22.56081-.21456-28.20517-19.30954-28.20517-19.30954-14.10261-29.94637,16.05832-97.20805,47.51474-96.98523,31.4647,.21456,20.39883,1.94745-.86645,49.89954m187.6824,78.97946c-5.85887,10.41396-20.61336,7.37725-30.37544,1.73289-9.76207-5.63605,4.12598-32.76021,4.12598-43.14944,1.081-14.29239-10.63678-63.16869-54.02551-60.5611-43.39702,2.59939-58.58887,42.34077-56.84772,64.00215,1.8237,17.0403,6.34575,37.81046-1.95571,39.70839-8.30146,1.89799-11.06587,1.51838-18.65765-11.28041-7.59181-12.79879-20.61339-38.61913,12.58423-87.22315,33.19759-48.60397,108.05108-37.75269,134.73786-2.6076,26.68684,35.1533,16.27288,88.9643,10.41396,99.37827m72.08905-22.99819c-5.20698,4.39005-18.71542,21.9667-29.45122,3.58137-10.74401-18.39364,5.04198-29.78132-14.48217-70.46344-19.53236-40.68212-16.51217-40.95445-13.02156-41.16901,51.42618-3.25953,64.60452,48.32344,64.60452,48.32344,11.38769,35.97029-2.4426,55.32934-7.64958,59.72764m54.8425-12.69151c-15.78599,0-20.63814-17.78295-21.15802-41.01222-.79216-35.45036,15.74474-25.77909,33.19759-16.75971,19.03726,10.24896,24.40929,20.34108,24.24424,28.79934-.15679,8.46651-20.49782,28.9726-36.28381,28.9726m83.31174-46.38425c-15.72001-7.22046-172.27604-81.52103-290.11392-81.52103-67.8228,1.96397-215.60701,32.09186-262.51113,68.82957-13.04634,10.22413-42.29126-6.70884-38.56962-31.72877,2.26103-15.15883,165.50117-80.06873,303.65535-80.06873s307.55851,71.28038,320.73691,77.67564c13.1866,6.40352-19.52415,53.09309-33.19759,46.81331"/>
          <path class="cls-1" d="M1334.6072,214.76634c5.0997-3.79593,4.88514-4.11777,11.28041-6.72536,6.40352-2.59939,10.5295-3.35855,15.84376-4.55509,5.31426-1.18828,15.40638-2.38478,15.07633-6.72531-.32184-4.34054-4.44781-6.5108-11.49502-7.16269-7.05541-.64368-23.5428-1.9475-31.02732-4.76965-7.49279-2.82215-15.84376-5.96615-16.92476-13.67349-1.08926-7.69909-1.74115-17.03204-3.47409-22.99819-1.73289-5.96615-.65189-8.24369-4.88514-7.69909-4.225,.54466-5.96615,2.71492-7.26171,10.30668-1.30382,7.59181-7.05541,17.13932-18.33587,16.59472-11.28041-.5364-30.81276-11.60224-33.52764-23.32003-2.70666-11.71778-4.11777-27.55328-5.6361-30.70554-1.51838-3.14399-4.0187-5.85887-6.18896-5.0997-2.16201,.75917-3.79593,.11554-4.87693,7.92185-1.08921,7.81463-2.17027,20.29157-5.96615,24.73939s-21.24052,4.52205-35.88774-2.79742c-14.63896-7.31948-22.61858-18.88873-23.18797-29.98762-.56939-11.09884-3.65566-17.77469-5.93316-18.01398-2.27755-.24755-6.67585,2.84693-7.32774,7.48453-.65194,4.63759-1.70816,13.91278-4.87693,17.3291-3.17698,3.41627-10.33967,4.38999-13.10411,4.15071-2.76438-.24755-35.0708-9.27519-39.62584-17.89849-4.55509-8.63151-2.59939-23.8399-4.87693-28.40321-2.27755-4.55509-2.20326-7.23698-5.37203-5.61132-3.17698,1.62561-7.31948,.81694-7.73208,6.99764-.40434,6.1807-1.30377,17.81599-7.64953,23.27052s-11.55273,10.41396-34.98004,7.56703c-23.43557-2.84693-37.34835-4.06821-39.13901-21.23226-1.79066-17.17231-2.61586-24.97042-7.58355-28.55179-4.95941-3.57306-8.82134-4.07647-10.77705,.23108-1.94745,4.31576-1.98046,24.0049-4.50556,31.40693-2.51684,7.40198-11.71778,14.89477-18.5504,14.81227-6.83262-.08255-28.41973,2.68188-38.51185,2.68188s-17.57668-5.31426-19.09503-13.23617c-1.51836-7.92185-1.94745-14.53168-4.76963-18.55037-2.82215-4.01044-5.85889-5.96615-9.22568-3.58137-3.35855,2.39309-5.96617,27.01694-7.80634,31.4647-1.84845,4.44781-29.86382,18.22033-44.91537,11.23095-15.05155-6.99769-8.9534-15.05981-12.77406-20.58863-3.82061-5.53708-6.02392-3.74642-8.54075-1.95571-2.5251,1.79066-4.88514,20.91042-5.70208,23.9224-.80873,3.01198-3.41632,9.52274-8.2107,11.39595-4.80264,1.86495-29.37698,12.8483-38.89146,12.69151-9.52274-.16505-11.0659-9.0359-12.53472-13.83854-1.46061-4.79438-3.58137-7.55877-7.23698-7.31948-3.66387,.24755-7.89713,16.52043-8.63151,22.70113-.72618,6.1807-12.36146,17.51888-19.96148,20.88569-7.59181,3.35855-8.78835,4.55509-14.7545,4.66237-5.9662,.10728-10.19119-3.35855-12.90607-11.49496-2.71487-8.13646-5.85887-12.80705-11.50322-12.04788-5.6361,.75917-6.83264,1.4111-7.80637,4.23326s-1.41105,25.82034-8.02913,32.43843-20.3988,9.81984-29.83083,9.97663c-9.44024,.165-23.60057,1.79066-23.27047,4.88514,.32179,3.09448,1.46056,6.02392,8.62325,6.83264,7.16274,.81694,24.07924,7.81458,31.24193,12.36967,7.16269,4.55504,17.65915,12.77401,18.06349,18.87221,.40439,6.10642-3.98566,11.1484-7.56703,13.02156-3.58132,1.87321-7.24519,2.27755-12.36967,2.27755s-10.16641-2.36005-16.59467-2.5251c-6.4283-.15679-17.98104,3.66387-18.39364,6.5108-.40434,2.84693,5.05019,6.02392,9.60529,7.32774,4.55509,1.29556,22.29679,5.20698,26.365,7.07193,4.06821,1.87316,14.67195,5.47926,22.91569,7.32774,8.24369,1.84017,41.44128,3.90316,49.89954,7.37725,8.46651,3.47404,112.11928,78.70708,260.0438,78.70708,156.70456,0,249.46479-65.90835,292.42446-84.45872,0,0,13.17834-5.42154,25.33346-4.88514,12.1469,.54461,18.76498,3.6886,27.33872,3.80414,8.56553,.10728,12.90607-2.39309,16.702-2.50037,3.79588-.10723,9.22568,2.92948,13.67344,2.60765,4.44781-.3301,8.78835-1.37806,13.23617-3.94446,4.44781-2.56635,8.35097-3.32551,9.21742-6.4695,.86645-3.15225-1.4111-4.55509-8.02913-6.61808-6.61808-2.06299-19.41687-1.84843-26.14218-4.77786-6.72536-2.92943-16.92476-9.97663-17.03204-13.77251-.10728-3.79593,.10728-5.96615,5.52882-12.04788,5.42975-6.07343,4.23326-5.74333,9.33296-9.54747m-532.12718,32.33115s-1.081,53.5964-38.1818,31.24188c-37.1008-22.3463-4.12598-43.38878-4.12598-43.38878,48.38947-30.16088,42.30778-13.67349,42.30778,12.1469m69.43192-.8665c-21.25704,47.95214,4.12598,66.60979-18.44312,66.39523-22.56081-.21456-28.20517-19.30954-28.20517-19.30954-14.10261-29.94637,16.05832-97.20805,47.51474-96.98523,31.4647,.21456,20.39883,1.94745-.86645,49.89954m187.6824,78.97946c-5.85887,10.41396-20.61336,7.37725-30.37544,1.73289-9.76207-5.63605,4.12598-32.76021,4.12598-43.14944,1.081-14.29239-10.63678-63.16869-54.02551-60.5611-43.39702,2.59939-58.58887,42.34077-56.84772,64.00215,1.8237,17.0403,6.34575,37.81046-1.95571,39.70839-8.30146,1.89799-11.06587,1.51838-18.65765-11.28041-7.59181-12.79879-20.61339-38.61913,12.58423-87.22315,33.19759-48.60397,108.05108-37.75269,134.73786-2.6076,26.68684,35.1533,16.27288,88.9643,10.41396,99.37827m72.08905-22.99819c-5.20698,4.39005-18.71542,21.9667-29.45122,3.58137-10.74401-18.39364,5.04198-29.78132-14.48217-70.46344-19.53236-40.68212-16.51217-40.95445-13.02156-41.16901,51.42618-3.25953,64.60452,48.32344,64.60452,48.32344,11.38769,35.97029-2.4426,55.32934-7.64958,59.72764m54.8425-12.69151c-15.78599,0-20.63814-17.78295-21.15802-41.01222-.79216-35.45036,15.74474-25.77909,33.19759-16.75971,19.03726,10.24896,24.40929,20.34108,24.24424,28.79934-.15679,8.46651-20.49782,28.9726-36.28381,28.9726m83.31174-46.38425c-15.72001-7.22046-172.27604-81.52103-290.11392-81.52103-67.8228,1.96397-215.60701,32.09186-262.51113,68.82957-13.04634,10.22413-42.29126-6.70884-38.56962-31.72877,2.26103-15.15883,165.50117-80.06873,303.65535-80.06873s307.55851,71.28038,320.73691,77.67564c13.1866,6.40352-19.52415,53.09309-33.19759,46.81331"/>
          <path class="cls-2" d="M975.08729,641.55731c-20.91871,8.34274-40.93795,17.06505-49.13214,21.84292-7.45151,4.34878-20.9352,11.13189-32.66124,16.77622-10.60374,5.10796-19.76341,9.26694-21.72738,9.82808-87.94107,11.40419-190.8099,23.06421-258.24486,22.24726,3.44931-1.56787,8.05389-3.41631,14.08609-5.69384,21.19924-8.01265,93.49462-35.17808,136.62758-52.16059,10.97509-4.32403,20.06874-7.9879,25.94413-10.50473,2.80566-1.20478,6.09821-2.61588,9.80332-4.2085,.97372,2.35181,2.46733,4.63759,4.61284,6.79137,4.65409,4.66234,11.23916,7.12143,19.02074,7.12143,10.12516,0,21.79341-4.28275,26.56304-9.73731,4.85215-5.53705,4.71188-13.65697,4.57985-21.51285-.03301-2.18676-.07426-4.28274,.00823-6.11468,8.21896-3.49885,16.65244-7.08845,25.05294-10.65327,5.12446,1.53485,10.01786,3.24301,13.9458,5.02544,6.321,2.87992,19.01251,7.01416,32.44669,11.38769,13.65697,4.45605,30.66424,9.99313,34.71595,12.42744,1.88144,1.12228,7.10494,3.69688,14.35842,7.13793"/>
          <path class="cls-4" d="M1327.07417,700.48453c-10.447,9.62178-111.99553,2.32706-243.27583-1.61738,23.20449,0,13.0546-8.96162,3.32551-14.92778-4.39825-2.70664-8.72232-4.7944-9.82805-5.16573-3.54833-1.18828-103.45473-46.12017-112.32558-51.43443-8.87085-5.32249-54.98277-18.32758-67.98785-24.24422-13.00509-5.9084-34.28686-10.63678-43.74361-11.8168-9.46497-1.18828-5.82588,14.2181-6.72531,22.09047-.93247,8.15293,1.40284,20.32456-2.73965,25.05294-4.13424,4.72835-24.08745,11.67651-33.54421,2.21978-9.45671-9.46499,1.74941-24.56608,3.3998-29.85559,2.87171-9.21742,5.90843-17.7417,7.08845-21.28179,1.18828-3.54833-2.95421-22.47005-10.63678-27.19843-7.68257-4.72835-49.80878-28.96436-55.1313-32.51269-5.31426-3.54833-27.63578-27.19843-34.13833-31.33267-6.50254-4.14247-21.87594-21.87591-26.60429-21.87591s-8.87085,7.09666-11.2309,11.2309c-2.36831,4.14247-8.87085,21.28179-17.73349,23.05596-8.87085,1.77416-13.5992-.58591-17.7417-3.54835-4.13419-2.95419-7.68257-13.00506-7.0884-18.91346,.58591-5.91666,15.36513-28.37848,16.55342-31.33267,1.18002-2.95419,8.27668-21.28179,6.50254-26.01015-1.77419-4.73661-7.30301-20.58863-10.64504-31.92681-5.78463-19.63138-5.89186-63.64732,0-72.12204,17.34562-22.4701,14.23462,8.7883,19.50763,25.61404,5.20698,16.59467,11.82506,41.18548,17.14758,55.37885,5.32247,14.18511,42.56354,31.91855,63.25945,44.92363,20.68765,13.00506,79.21875,42.57182,79.21875,42.57182,0,0,286.12821,114.68563,314.50669,128.28486,6.41173,3.06973,19.47459,8.82134,36.1518,16.00052,41.26798,17.75821,104.65949,44.26349,144.18636,60.58585,.09076,.033,.18152,.07426,.27233,.10727"/>
          <path class="cls-4" d="M1327.18986,700.37725c-.0413,.04126-.07429,.07428-.11554,.10728-.09076-.033-.18157-.07426-.27233-.10728h.38787Z"/>
        </g>
      </g>
    </g>
  </g>
</svg>